# AST/ASF file generated using VICON BodyLanguage
# -----------------------------------------------
:version 1.10
:name VICON
:units
  mass 1.0
  length 0.45
  angle deg
:documentation
   .ast/.asf automatically generated from VICON data using
   VICON BodyBuilder and BodyLanguage model FoxedUp or BRILLIANT.MOD
:root
   order TX TY TZ RX RY RZ
   axis XYZ
   position 0 0 0  
   orientation 0 0 0 
:bonedata
  begin
     id 1 
     name lhipjoint
     direction 0.561001 -0.76473 0.316963 
     length 2.4722 
     axis 0 0 0  XYZ
  end
  begin
     id 2 
     name lfemur
     direction 0.34202 -0.939693 0  
     length 7.59403  
     axis 0 0 20  XYZ
    dof rx ry rz
    limits (-160.0 20.0)
           (-70.0 70.0)
           (-60.0 70.0)
  end
  begin
     id 3 
     name ltibia
     direction 0.34202 -0.939693 0   
     length 7.89655   
     axis 0 0 20   XYZ
    dof rx
    limits (-10.0 170.0)
  end
  begin
     id 4 
     name lfoot
     direction 0.061296 -0.168409 0.98381   
     length 2.73287   
     axis -90 7.62852e-016 20   XYZ
    dof rx rz
    limits (-45.0 90.0)
           (-70.0 20.0)
  end
  begin
     id 5 
     name ltoes
     direction 1.53547e-011 -4.21984e-011 1   
     length 1.37057   
     axis -90 7.62852e-016 20   XYZ
    dof rx
    limits (-90.0 20.0)
  end
  begin
     id 6 
     name rhipjoint
     direction -0.559611 -0.765599 0.317323   
     length 2.46939  
     axis 0 0 0  XYZ 
  end
  begin
     id 7 
     name rfemur
     direction -0.34202 -0.939693 0   
     length 7.53712   
     axis 0 0 -20   XYZ
    dof rx ry rz
    limits (-160.0 20.0)
           (-70.0 70.0)
           (-70.0 60.0)
  end
  begin
     id 8 
     name rtibia
     direction -0.34202 -0.939693 0   
     length 8.12549   
     axis 0 0 -20   XYZ
    dof rx
    limits (-10.0 170.0)
 end
 begin
     id 9 
     name rfoot
     direction -0.066984 -0.184037 0.980634   
     length 2.67541  
     axis -90 -7.62852e-016 -20   XYZ
    dof rx rz
    limits (-45.0 90.0)
           (-20.0 70.0)
  end
  begin
     id 10 
     name rtoes
     direction -1.53549e-011 -4.21786e-011 1   
     length 1.34085   
     axis -90 -7.62852e-016 -20   XYZ
    dof rx
    limits (-90.0 20.0)
  end
  begin
     id 11 
     name lowerback
     direction -0.0522728 0.992594 -0.109658   
     length 2.05633   
     axis 0 0 0   XYZ
    dof rx ry rz
    limits (-20.0 45.0)
           (-30.0 30.0)
           (-30.0 30.0)
  end
  begin
     id 12 
     name upperback
     direction 0.00589338 0.999977 0.00335704   
     length 2.05845   
     axis 0 0 0   XYZ
    dof rx ry rz
    limits (-20.0 45.0)
           (-30.0 30.0)
           (-30.0 30.0)
  end
  begin
     id 13 
     name thorax
     direction 0.0292928 0.998059 0.0549487   
     length 2.09281   
     axis 0 0 0   XYZ
    dof rx ry rz
    limits (-20.0 45.0)
           (-30.0 30.0)
           (-30.0 30.0)
  end
  begin
     id 14 
     name lowerneck
     direction 0.0356368 0.980775 0.191858   
     length 1.84767   
     axis 0 0 0   XYZ
    dof rx ry rz
    limits (-20.0 45.0)
           (-30.0 30.0)
           (-30.0 30.0)
  end
  begin
     id 15 
     name upperneck
     direction -0.0227605 0.98931 -0.14404   
     length 1.89582   
     axis 0 0 0   XYZ
    dof rx ry rz
    limits (-20.0 45.0)
           (-30.0 30.0)
           (-30.0 30.0)
  end
  begin
     id 16
     name head
     direction -0.00932985 0.997511 -0.0698904  
     length 1.90213  
     axis 0 0 0   XYZ
    dof rx ry rz
    limits (-20.0 45.0)
           (-30.0 30.0)
           (-30.0 30.0)
  end
  begin
     id 17 
     name lclavicle
     direction 0.873442 0.479511 0.0846686  
     length 3.41193  
     axis 0 0 0   XYZ
    dof ry rz
    limits (-20.0 10.0)
           (0.0 20.0)
  end
  begin
     id 18 
     name lhumerus
     direction 1 -4.4897e-011 -5.62117e-018   
     length 5.59864   
     axis 180 -30 -90   XYZ
    dof rx ry rz
    limits (-60.0 90.0)
           (-90.0 90.0)
           (-90.0 90.0)
  end
  begin
     id 19
     name lradius
     direction 1 -4.48966e-011 -6.26295e-027   
     length 3.59542   
     axis 180 -30 -90   XYZ
    dof rx
    limits (-10.0 170.0)
  end
  begin
     id 20
     name lwrist
     direction 1 -4.48947e-011 -1.74096e-026   
     length 1.79771   
     axis 1.04567e-014 90 90   XYZ
    dof ry
    limits (-180.0 0.0)
 end
  begin
     id 21 
     name lhand
     direction 1 -4.49085e-011 -3.48469e-026   
     length 0.572014   
     axis 2.22196e-014 90 90   XYZ
    dof rx rz
    limits (-90.0 90.0)
           (-45.0 45.0)
  end
  begin
     id 22 
     name lfingers
     direction 1 -4.48884e-011 -6.96135e-026   
     length 0.461173   
     axis 4.44383e-014 90 90   XYZ
    dof rx
    limits (0.0 90.0)
  end
  begin
     id 23
     name lthumb
     direction 0.707107 -6.34976e-011 0.707107   
     length 0.662154   
     axis -90 45 -5.4397e-014   XYZ
    dof rx rz
    limits (-45.0 45.0)
           (-45.0 45.0)
  end
  begin
     id 24 
     name rclavicle
     direction -0.890242 0.443271 0.104786   
     length 3.46753  
     axis 0 0 0   XYZ 
    dof ry rz
    limits (-10.0 20.0)
           (-20.0 0.0)
  end
  begin
     id 25 
     name rhumerus
     direction -1 -4.48963e-011 -5.41723e-018  
     length 5.8094   
     axis 180 30 90   XYZ
    dof rx ry rz
    limits (-90.0 60.0)
           (-90.0 90.0)
           (-90.0 90.0)
  end
  begin
     id 26 
     name rradius
     direction -1 -4.48958e-011 -6.51059e-027   
     length 3.66953   
     axis 180 30 90   XYZ
    dof rx
    limits (-10.0 170.0)
  end
  begin
     id 27 
     name rwrist
     direction -1 -4.48975e-011 -1.74124e-026   
     length 1.83476   
     axis 1.04567e-014 -90 -90   XYZ
    dof ry
    limits (-180.0 0.0)
  end
  begin
     id 28
     name rhand
     direction -1 -4.49013e-011 -3.48326e-026   
     length 0.57843   
     axis 2.22196e-014 -90 -90   XYZ
    dof rx rz
    limits (-90.0 90.0)
           (-45.0 45.0)
  end
  begin
     id 29
     name rfingers
     direction -1 -4.49023e-011 -6.9669e-026   
     length 0.466345   
     axis 4.44383e-014 -90 -90   XYZ
    dof rx
    limits (0.0 90.0)
  end
  begin
     id 30
     name rthumb
     direction -0.707107 -6.34926e-011 0.707107   
     length 0.669581   
     axis -90 -45 5.4397e-014   XYZ
    dof rx rz
    limits (-45.0 45.0)
           (-45.0 45.0)
  end
:hierarchy
  begin
    root lhipjoint rhipjoint lowerback
    lhipjoint lfemur
    lfemur ltibia
    ltibia lfoot
    lfoot ltoes
    rhipjoint rfemur
    rfemur rtibia
    rtibia rfoot
    rfoot rtoes
    lowerback upperback
    upperback thorax
    thorax lowerneck lclavicle rclavicle
    lowerneck upperneck
    upperneck head
    lclavicle lhumerus
    lhumerus lradius
    lradius lwrist
    lwrist lhand lthumb
    lhand lfingers
    rclavicle rhumerus
    rhumerus rradius
    rradius rwrist
    rwrist rhand rthumb
    rhand rfingers
  end

#!OML:ASF H:\SkateBoarding\Project 1\Capture day 1\Session 1\Skater.ASF
:FULLY-SPECIFIED
:DEGREES
252
root -0.736149 19.2535 51.9551 -190.319 73.589 -191.715
lowerback 7.24525 -2.48661 -1.46239
upperback -0.197558 -3.41303 0.360975
thorax -4.15632 -1.65366 1.55576
lowerneck -12.5845 -8.22564 -4.21424
upperneck 44.25 -7.42555 -3.26117
head 19.0711 -3.25491 -1.95715
rclavicle 3.77194e-014 -1.98785e-015
rhumerus -43.6613 -9.53802 -70.3998
rradius 33.3549
rwrist -9.50336
rhand -26.8904 -14.8955
rfingers 7.12502
rthumb -0.314228 -44.875
lclavicle 3.77194e-014 -1.98785e-015
lhumerus -32.8843 -33.4248 109.194
lradius 63.8664
lwrist 29.5395
lhand -15.0236 15.5281
lfingers 7.12502
lthumb 11.1419 45.2123
rfemur -14.9306 -1.56228 13.2778
rtibia 41.651
rfoot -26.5904 16.8315
rtoes -2.74158
lfemur -4.18945 -4.95512 -13.9928
ltibia 34.4349
lfoot -38.7905 3.17809
ltoes -19.2269
253
root -0.598952 19.2437 52.2085 -190.292 73.5582 -191.572
lowerback 7.34528 -2.45438 -1.49886
upperback -0.182804 -3.37248 0.39721
thorax -4.19432 -1.63171 1.61399
lowerneck -12.5897 -8.23835 -4.27307
upperneck 44.3743 -7.40772 -3.24883
head 19.1601 -3.24569 -1.94294
rclavicle 2.35808e-014 1.07344e-014
rhumerus -43.408 -9.16077 -70.8905
rradius 33.9559
rwrist -10.2606
rhand -27.1664 -14.798
rfingers 7.12502
rthumb -0.580835 -44.777
lclavicle 2.35808e-014 1.07344e-014
lhumerus -32.8418 -33.7411 109.362
lradius 62.7495
lwrist 28.8548
lhand -14.4955 15.1098
lfingers 7.12502
lthumb 11.6513 44.7659
rfemur -14.9111 -1.75101 13.272
rtibia 41.6907
rfoot -26.5907 16.8273
rtoes -2.81557
lfemur -4.33544 -5.04266 -13.9921
ltibia 34.6999
lfoot -38.8724 3.12572
ltoes -19.2133
254
root -0.461505 19.2338 52.463 -190.149 73.539 -191.346
lowerback 7.39961 -2.43884 -1.50528
upperback -0.18188 -3.35181 0.423034
thorax -4.22271 -1.62056 1.64484
lowerneck -12.5533 -8.24579 -4.31437
upperneck 44.4747 -7.37168 -3.27914
head 19.2177 -3.23435 -1.9454
rclavicle 5.23301e-014 -7.95139e-016
rhumerus -43.1289 -8.81784 -71.4225
rradius 34.4777
rwrist -10.8368
rhand -27.6189 -14.4729
rfingers 7.12502
rthumb -1.01783 -44.4502
lclavicle 5.23301e-014 -7.95139e-016
lhumerus -32.8665 -33.9419 109.549
lradius 61.567
lwrist 28.2031
lhand -13.9896 14.2838
lfingers 7.12502
lthumb 12.1392 43.9117
rfemur -14.9486 -1.95349 13.2841
rtibia 41.7578
rfoot -26.5309 16.9096
rtoes -2.96926
lfemur -4.52382 -5.17491 -13.954
ltibia 34.9468
lfoot -38.9495 3.09676
ltoes -19.2698
255
root -0.323091 19.2228 52.7169 -190.277 73.5129 -191.29
lowerback 7.5216 -2.30115 -1.46458
upperback -0.137671 -3.17055 0.30593
thorax -4.26077 -1.53206 1.48658
lowerneck -12.4627 -8.35263 -4.15579
upperneck 44.5637 -7.58466 -3.2582
head 19.2361 -3.28018 -2.00005
rclavicle 7.85199e-015 8.34896e-015
rhumerus -43.0754 -8.83906 -71.9698
rradius 35.0853
rwrist -11.2489
rhand -28.1022 -14.1963
rfingers 7.12502
rthumb -1.48458 -44.1708
lclavicle 7.85199e-015 8.34896e-015
lhumerus -33.0088 -34.6062 109.718
lradius 60.3866
lwrist 27.5657
lhand -14.708 14.0457
lfingers 7.12502
lthumb 11.4464 43.7132
rfemur -14.8691 -2.119 13.2544
rtibia 41.8563
rfoot -26.5341 16.9275
rtoes -3.22885
lfemur -4.55326 -5.29744 -13.9734
ltibia 35.1655
lfoot -39.0385 3.19933
ltoes -19.6647
256
root -0.184346 19.2112 52.9724 -190.408 73.4838 -191.302
lowerback 7.6437 -2.2459 -1.50782
upperback -0.137166 -3.10483 0.248912
thorax -4.33199 -1.49795 1.45048
lowerneck -12.4314 -8.38735 -4.11347
upperneck 44.6547 -7.63496 -3.26249
head 19.2828 -3.28588 -2.02036
rclavicle 6.95746e-016 5.1684e-015
rhumerus -42.9673 -8.41451 -72.6915
rradius 35.7414
rwrist -11.566
rhand -28.7217 -14.0993
rfingers 7.12502
rthumb -2.08291 -44.0688
lclavicle 6.95746e-016 5.1684e-015
lhumerus -32.9576 -34.6586 109.818
lradius 59.0313
lwrist 26.7915
lhand -13.8858 13.6954
lfingers 7.12502
lthumb 12.2392 43.3173
rfemur -14.8562 -2.30038 13.2228
rtibia 41.9682
rfoot -26.5456 17.0115
rtoes -3.09273
lfemur -4.65282 -5.4242 -13.9995
ltibia 35.3796
lfoot -39.0822 3.25774
ltoes -19.9735
257
root -0.0455121 19.1978 53.2262 -190.433 73.4659 -191.155
lowerback 7.80767 -2.21966 -1.58315
upperback -0.13009 -3.07687 0.287663
thorax -4.41163 -1.48064 1.53704
lowerneck -12.4275 -8.37629 -4.11692
upperneck 44.7408 -7.54447 -3.37861
head 19.3314 -3.25905 -2.06134
rclavicle 5.06901e-014 3.18055e-015
rhumerus -42.7969 -7.97989 -73.2089
rradius 36.4056
rwrist -11.9674
rhand -28.9531 -13.9512
rfingers 7.12502
rthumb -2.30638 -43.9185
lclavicle 5.06901e-014 3.18055e-015
lhumerus -32.982 -34.7561 109.959
lradius 57.8175
lwrist 26.1647
lhand -13.3797 13.5377
lfingers 7.12502
lthumb 12.7271 43.1298
rfemur -14.8067 -2.51019 13.2366
rtibia 42.1065
rfoot -26.5427 17.0703
rtoes -3.08089
lfemur -4.67417 -5.53385 -13.9809
ltibia 35.5747
lfoot -39.1821 3.26132
ltoes -20.2244
258
root 0.0927075 19.1843 53.4796 -190.033 73.4348 -190.564
lowerback 7.92773 -2.15803 -1.4299
upperback -0.0819468 -2.9817 0.272655
thorax -4.44089 -1.43641 1.42933
lowerneck -12.3808 -8.42296 -4.12807
upperneck 44.7595 -7.62495 -3.33695
head 19.3339 -3.28375 -2.05233
rclavicle -4.6938e-014 -1.59028e-015
rhumerus -42.6711 -7.73902 -73.7968
rradius 37.1076
rwrist -12.407
rhand -29.1859 -13.791
rfingers 7.12502
rthumb -2.53128 -43.7557
lclavicle -4.6938e-014 -1.59028e-015
lhumerus -32.8468 -34.7189 109.942
lradius 56.3811
lwrist 25.573
lhand -12.3765 12.8427
lfingers 7.12502
lthumb 13.6942 42.3722
rfemur -14.7485 -2.70088 13.3928
rtibia 42.2471
rfoot -26.5763 17.0548
rtoes -3.32738
lfemur -4.70327 -5.73112 -13.8162
ltibia 35.7715
lfoot -39.2879 3.22124
ltoes -20.2761
259
root 0.230586 19.1678 53.7369 -190.342 73.438 -190.649
lowerback 8.16887 -2.13699 -1.63452
upperback -0.052836 -2.97442 0.287976
thorax -4.53513 -1.42629 1.56883
lowerneck -12.3796 -8.38799 -4.09728
upperneck 44.8071 -7.51876 -3.44624
head 19.3555 -3.24765 -2.09154
rclavicle 1.05853e-014 5.1684e-015
rhumerus -42.4957 -7.20908 -74.4535
rradius 37.7663
rwrist -13.129
rhand -29.8343 -13.3598
rfingers 7.12502
rthumb -3.15748 -43.3162
lclavicle 1.05853e-014 5.1684e-015
lhumerus -32.6829 -34.4144 109.822
lradius 55.03
lwrist 24.6696
lhand -11.5534 12.8766
lfingers 7.12502
lthumb 14.4873 42.3508
rfemur -14.6418 -2.80906 13.3888
rtibia 42.4137
rfoot -26.6135 17.1099
rtoes -3.35699
lfemur -4.63778 -5.85515 -13.8319
ltibia 35.9532
lfoot -39.4037 3.13298
ltoes -20.2401
260
root 0.370918 19.1568 53.9902 -190.053 73.4491 -190.23
lowerback 8.20709 -2.07097 -1.52087
upperback -0.0131941 -2.87659 0.258155
thorax -4.52593 -1.38076 1.46361
lowerneck -12.3911 -8.3987 -4.07149
upperneck 44.8494 -7.53402 -3.44219
head 19.3847 -3.2442 -2.09878
rclavicle -3.43897e-014 -9.54166e-015
rhumerus -42.3626 -6.9128 -75.0773
rradius 38.4353
rwrist -13.5244
rhand -30.1654 -13.1426
rfingers 7.12502
rthumb -3.47721 -43.094
lclavicle -3.43897e-014 -9.54166e-015
lhumerus -32.5207 -34.2821 109.767
lradius 53.5618
lwrist 24.0268
lhand -11.1465 12.7781
lfingers 7.12502
lthumb 14.8794 42.2238
rfemur -14.631 -2.74505 13.5381
rtibia 42.58
rfoot -26.8047 17.1547
rtoes -3.17755
lfemur -4.68833 -5.92806 -13.6801
ltibia 36.1305
lfoot -39.4806 3.15406
ltoes -20.6519
261
root 0.512428 19.1429 54.2406 -190.17 73.4148 -190.192
lowerback 8.29541 -2.01984 -1.46581
upperback 0.0247077 -2.80845 0.148994
thorax -4.54649 -1.34889 1.31451
lowerneck -12.3763 -8.42155 -3.99663
upperneck 44.8834 -7.58921 -3.43813
head 19.3959 -3.2496 -2.12013
rclavicle 5.26779e-014 0
rhumerus -42.2614 -6.67202 -75.7382
rradius 39.0863
rwrist -13.8363
rhand -28.9092 -13.0913
rfingers 7.12502
rthumb -2.26404 -43.059
lclavicle 5.26779e-014 0
lhumerus -32.4687 -34.1669 109.651
lradius 52.1618
lwrist 23.5146
lhand -10.9643 12.5966
lfingers 7.12502
lthumb 15.0549 42.0292
rfemur -14.6002 -2.99014 13.5389
rtibia 42.7965
rfoot -26.7816 17.2436
rtoes -3.3383
lfemur -4.65657 -6.15195 -13.6879
ltibia 36.2741
lfoot -39.6168 3.1645
ltoes -20.7108
262
root 0.654607 19.1289 54.4953 -189.735 73.594 -189.615
lowerback 8.33961 -1.96244 -1.47814
upperback 0.0537941 -2.72761 0.264359
thorax -4.53723 -1.30745 1.43251
lowerneck -12.3994 -8.37314 -4.07568
upperneck 44.9145 -7.437 -3.51965
head 19.4265 -3.21069 -2.11966
rclavicle -2.90723e-015 -3.18055e-015
rhumerus -42.0594 -6.10108 -76.2387
rradius 39.6796
rwrist -13.9613
rhand -28.7095 -12.9429
rfingers 7.12502
rthumb -2.07115 -42.9126
lclavicle -2.90723e-015 -3.18055e-015
lhumerus -32.2415 -33.8064 109.527
lradius 50.7318
lwrist 23.074
lhand -11.0264 12.6919
lfingers 7.12502
lthumb 14.9951 42.1289
rfemur -14.6461 -2.97607 13.8044
rtibia 43.0289
rfoot -26.8073 17.3691
rtoes -3.13941
lfemur -4.64667 -6.1034 -13.4013
ltibia 36.4377
lfoot -39.6986 2.98006
ltoes -20.6647
263
root 0.797093 19.1145 54.7455 -190.139 73.6161 -189.834
lowerback 8.43173 -1.8633 -1.50534
upperback 0.113553 -2.60358 0.141251
thorax -4.53533 -1.24647 1.30763
lowerneck -12.4039 -8.39867 -3.97618
upperneck 44.9601 -7.48842 -3.54384
head 19.4468 -3.21294 -2.15956
rclavicle -3.01656e-014 1.03368e-014
rhumerus -41.9812 -6.60156 -76.595
rradius 40.2971
rwrist -13.7005
rhand -28.7214 -12.5784
rfingers 7.12502
rthumb -2.08265 -42.5479
lclavicle -3.01656e-014 1.03368e-014
lhumerus -32.1598 -33.4955 109.382
lradius 49.2711
lwrist 22.6428
lhand -11.4569 12.7351
lfingers 7.12502
lthumb 14.5803 42.2027
rfemur -14.6097 -3.21572 13.7676
rtibia 43.3144
rfoot -26.878 17.3636
rtoes -3.22144
lfemur -4.53562 -6.24062 -13.4492
ltibia 36.5669
lfoot -39.8006 3.01019
ltoes -20.8211
264
root 0.931288 19.1041 55.0029 -189.522 73.5201 -189.121
lowerback 8.55514 -1.86593 -1.41886
upperback 0.0977911 -2.59932 0.165997
thorax -4.62387 -1.24469 1.28958
lowerneck -12.3445 -8.38635 -3.97171
upperneck 44.9332 -7.46566 -3.54999
head 19.4112 -3.20462 -2.1537
rclavicle 1.44616e-014 -1.15295e-014
rhumerus -41.8549 -6.33805 -77.1583
rradius 40.82
rwrist -13.6789
rhand -28.593 -12.3817
rfingers 7.12502
rthumb -1.95864 -42.3525
lclavicle 1.44616e-014 -1.15295e-014
lhumerus -32.0509 -33.0047 109.203
lradius 47.8321
lwrist 22.2093
lhand -11.8062 12.586
lfingers 7.12502
lthumb 14.2438 42.0776
rfemur -14.73 -3.4428 14.0461
rtibia 43.6113
rfoot -27.0644 17.2258
rtoes -3.50111
lfemur -4.66908 -6.4662 -13.1576
ltibia 36.7072
lfoot -39.729 3.04747
ltoes -21.0378
265
root 1.07475 19.0918 55.2522 -189.759 73.5612 -189.147
lowerback 8.67983 -1.7962 -1.43401
upperback 0.153358 -2.51147 0.091253
thorax -4.6413 -1.20106 1.21327
lowerneck -12.3967 -8.36756 -3.83456
upperneck 45.0105 -7.4222 -3.64562
head 19.459 -3.17089 -2.2206
rclavicle 4.98453e-014 -3.18055e-015
rhumerus -41.7256 -6.18238 -77.711
rradius 41.3343
rwrist -13.7508
rhand -28.4721 -12.2175
rfingers 7.12502
rthumb -1.84189 -42.1893
lclavicle 4.98453e-014 -3.18055e-015
lhumerus -31.9136 -32.5079 108.93
lradius 46.3327
lwrist 21.8574
lhand -12.2814 12.3916
lfingers 7.12502
lthumb 13.7858 41.9149
rfemur -14.6829 -3.67807 14.0808
rtibia 43.9305
rfoot -27.0554 17.2826
rtoes -3.48796
lfemur -4.52288 -6.65337 -13.1181
ltibia 36.8034
lfoot -39.7552 2.97086
ltoes -20.8657
266
root 1.21345 19.0805 55.5052 -189.479 73.6138 -188.715
lowerback 8.79 -1.74909 -1.40624
upperback 0.174167 -2.44652 0.0948526
thorax -4.68431 -1.16873 1.19703
lowerneck -12.3893 -8.34233 -3.78216
upperneck 45.0374 -7.35699 -3.71734
head 19.4659 -3.14315 -2.252
rclavicle -1.23619e-014 -5.96354e-015
rhumerus -41.5953 -5.60455 -78.3495
rradius 41.8066
rwrist -14.0462
rhand -28.437 -12.0492
rfingers 7.12502
rthumb -1.80792 -42.0213
lclavicle -1.23619e-014 -5.96354e-015
lhumerus -31.7653 -31.7895 108.628
lradius 44.8548
lwrist 21.3684
lhand -12.926 12.4966
lfingers 7.12502
lthumb 13.1646 42.061
rfemur -14.7322 -3.80456 14.3192
rtibia 44.234
rfoot -27.197 17.2146
rtoes -3.83894
lfemur -4.50397 -6.84728 -12.8903
ltibia 36.9047
lfoot -39.6932 2.85544
ltoes -20.7112
